<svg width="114" height="105" viewBox="0 0 114 105" fill="none" xmlns="http://www.w3.org/2000/svg">
<rect width="114" height="105" rx="52.5" fill="#10B981"/>
<mask id="path-2-outside-1_47_2" maskUnits="userSpaceOnUse" x="32" y="22" width="46" height="56" fill="black">
<rect fill="white" x="32" y="22" width="46" height="56"/>
<path d="M58.925 75.64C55.469 75.64 52.2263 75 49.197 73.72C46.2103 72.3973 43.5863 70.584 41.325 68.28C39.1063 65.9333 37.357 63.2027 36.077 60.088C34.8397 56.9733 34.221 53.6027 34.221 49.976C34.221 46.392 34.8397 43.064 36.077 39.992C37.357 36.8773 39.1063 34.168 41.325 31.864C43.5863 29.5173 46.2103 27.6827 49.197 26.36C52.1837 25.0373 55.4263 24.376 58.925 24.376C62.2103 24.376 65.0263 24.8027 67.373 25.656C69.7623 26.5093 72.1517 27.9173 74.541 29.88C74.8823 30.136 75.1383 30.4133 75.309 30.712C75.5223 30.968 75.6503 31.2453 75.693 31.544C75.7783 31.8 75.821 32.12 75.821 32.504C75.821 33.3147 75.5223 33.9973 74.925 34.552C74.3703 35.064 73.6877 35.3627 72.877 35.448C72.0663 35.4907 71.277 35.2133 70.509 34.616C68.9303 33.2507 67.2877 32.2053 65.581 31.48C63.917 30.7547 61.6983 30.392 58.925 30.392C56.4077 30.392 54.0397 30.904 51.821 31.928C49.6023 32.952 47.6397 34.36 45.933 36.152C44.269 37.944 42.9677 40.0347 42.029 42.424C41.0903 44.7707 40.621 47.288 40.621 49.976C40.621 52.7067 41.0903 55.2667 42.029 57.656C42.9677 60.0027 44.269 62.072 45.933 63.864C47.6397 65.656 49.6023 67.064 51.821 68.088C54.0397 69.0693 56.4077 69.56 58.925 69.56C61.101 69.56 63.149 69.1973 65.069 68.472C67.0317 67.704 68.909 66.6587 70.701 65.336C71.469 64.7813 72.2157 64.5467 72.941 64.632C73.709 64.6747 74.349 64.9733 74.861 65.528C75.373 66.04 75.629 66.7653 75.629 67.704C75.629 68.1307 75.5437 68.5573 75.373 68.984C75.2023 69.368 74.9463 69.7307 74.605 70.072C72.301 71.9067 69.8263 73.2933 67.181 74.232C64.5783 75.1707 61.8263 75.64 58.925 75.64Z"/>
</mask>
<path d="M58.925 75.64C55.469 75.64 52.2263 75 49.197 73.72C46.2103 72.3973 43.5863 70.584 41.325 68.28C39.1063 65.9333 37.357 63.2027 36.077 60.088C34.8397 56.9733 34.221 53.6027 34.221 49.976C34.221 46.392 34.8397 43.064 36.077 39.992C37.357 36.8773 39.1063 34.168 41.325 31.864C43.5863 29.5173 46.2103 27.6827 49.197 26.36C52.1837 25.0373 55.4263 24.376 58.925 24.376C62.2103 24.376 65.0263 24.8027 67.373 25.656C69.7623 26.5093 72.1517 27.9173 74.541 29.88C74.8823 30.136 75.1383 30.4133 75.309 30.712C75.5223 30.968 75.6503 31.2453 75.693 31.544C75.7783 31.8 75.821 32.12 75.821 32.504C75.821 33.3147 75.5223 33.9973 74.925 34.552C74.3703 35.064 73.6877 35.3627 72.877 35.448C72.0663 35.4907 71.277 35.2133 70.509 34.616C68.9303 33.2507 67.2877 32.2053 65.581 31.48C63.917 30.7547 61.6983 30.392 58.925 30.392C56.4077 30.392 54.0397 30.904 51.821 31.928C49.6023 32.952 47.6397 34.36 45.933 36.152C44.269 37.944 42.9677 40.0347 42.029 42.424C41.0903 44.7707 40.621 47.288 40.621 49.976C40.621 52.7067 41.0903 55.2667 42.029 57.656C42.9677 60.0027 44.269 62.072 45.933 63.864C47.6397 65.656 49.6023 67.064 51.821 68.088C54.0397 69.0693 56.4077 69.56 58.925 69.56C61.101 69.56 63.149 69.1973 65.069 68.472C67.0317 67.704 68.909 66.6587 70.701 65.336C71.469 64.7813 72.2157 64.5467 72.941 64.632C73.709 64.6747 74.349 64.9733 74.861 65.528C75.373 66.04 75.629 66.7653 75.629 67.704C75.629 68.1307 75.5437 68.5573 75.373 68.984C75.2023 69.368 74.9463 69.7307 74.605 70.072C72.301 71.9067 69.8263 73.2933 67.181 74.232C64.5783 75.1707 61.8263 75.64 58.925 75.64Z" fill="white"/>
<path d="M49.197 73.72L48.3871 75.5487L48.4028 75.5556L48.4186 75.5623L49.197 73.72ZM41.325 68.28L39.8717 69.654L39.8845 69.6676L39.8976 69.6809L41.325 68.28ZM36.077 60.088L34.2183 60.8264L34.2226 60.8373L34.2271 60.8482L36.077 60.088ZM36.077 39.992L34.2271 39.2318L34.2218 39.2448L36.077 39.992ZM41.325 31.864L39.8848 30.4762L39.8844 30.4767L41.325 31.864ZM49.197 26.36L48.3871 24.5313L48.3871 24.5313L49.197 26.36ZM67.373 25.656L66.6895 27.5356L66.7003 27.5395L67.373 25.656ZM74.541 29.88L73.2715 31.4254L73.3057 31.4535L73.341 31.48L74.541 29.88ZM75.309 30.712L73.5725 31.7043L73.6599 31.8571L73.7726 31.9924L75.309 30.712ZM75.693 31.544L73.7131 31.8268L73.7386 32.0054L73.7956 32.1765L75.693 31.544ZM74.925 34.552L76.2816 36.0216L76.2859 36.0176L74.925 34.552ZM72.877 35.448L72.9821 37.4452L73.0344 37.4425L73.0864 37.437L72.877 35.448ZM70.509 34.616L69.2007 36.1287L69.2401 36.1628L69.2811 36.1947L70.509 34.616ZM65.581 31.48L64.7818 33.3134L64.7903 33.3171L64.7987 33.3207L65.581 31.48ZM45.933 36.152L44.4847 34.7727L44.476 34.7818L44.4674 34.7911L45.933 36.152ZM42.029 42.424L43.886 43.1668L43.8905 43.1553L42.029 42.424ZM42.029 57.656L40.1675 58.3873L40.172 58.3988L42.029 57.656ZM45.933 63.864L44.4674 65.2249L44.476 65.2342L44.4847 65.2433L45.933 63.864ZM51.821 68.088L50.9829 69.9039L50.9974 69.9106L51.012 69.9171L51.821 68.088ZM65.069 68.472L65.7758 70.3429L65.7868 70.3388L65.7978 70.3345L65.069 68.472ZM70.701 65.336L69.53 63.7146L69.5216 63.7207L69.5133 63.7269L70.701 65.336ZM72.941 64.632L72.7073 66.6183L72.7685 66.6255L72.8301 66.6289L72.941 64.632ZM74.861 65.528L73.3914 66.8846L73.4185 66.9139L73.4468 66.9422L74.861 65.528ZM75.373 68.984L77.2006 69.7963L77.2159 69.7618L77.23 69.7268L75.373 68.984ZM74.605 70.072L75.8509 71.6366L75.9393 71.5661L76.0192 71.4862L74.605 70.072ZM67.181 74.232L66.5122 72.3471L66.5025 72.3506L67.181 74.232ZM58.925 73.64C55.7226 73.64 52.746 73.0484 49.9754 71.8777L48.4186 75.5623C51.7067 76.9516 55.2154 77.64 58.925 77.64V73.64ZM50.0069 71.8913C47.2484 70.6697 44.8346 69.0006 42.7524 66.8791L39.8976 69.6809C42.3381 72.1674 45.1723 74.125 48.3871 75.5487L50.0069 71.8913ZM42.7783 66.906C40.7356 64.7454 39.1176 62.2251 37.9269 59.3278L34.2271 60.8482C35.5964 64.1803 37.4771 67.1213 39.8717 69.654L42.7783 66.906ZM37.9357 59.3496C36.7991 56.4886 36.221 53.3707 36.221 49.976H32.221C32.221 53.8346 32.8802 57.4581 34.2183 60.8264L37.9357 59.3496ZM36.221 49.976C36.221 46.6269 36.7981 43.5548 37.9322 40.7392L34.2218 39.2448C32.8812 42.5732 32.221 46.1571 32.221 49.976H36.221ZM37.9269 40.7522C39.1163 37.858 40.7308 35.3644 42.7656 33.2513L39.8844 30.4767C37.4819 32.9716 35.5977 35.8966 34.2271 39.2318L37.9269 40.7522ZM42.7652 33.2518C44.8465 31.0919 47.2563 29.4068 50.0069 28.1887L48.3871 24.5313C45.1644 25.9585 42.3262 27.9427 39.8848 30.4762L42.7652 33.2518ZM50.0069 28.1887C52.7207 26.9869 55.6851 26.376 58.925 26.376V22.376C55.1675 22.376 51.6467 23.0878 48.3871 24.5313L50.0069 28.1887ZM58.925 26.376C62.0467 26.376 64.6189 26.7826 66.6895 27.5356L68.0565 23.7764C65.4338 22.8227 62.374 22.376 58.925 22.376V26.376ZM66.7003 27.5395C68.8312 28.3005 71.0225 29.5781 73.2715 31.4254L75.8105 28.3345C73.2808 26.2566 70.6935 24.7182 68.0457 23.7725L66.7003 27.5395ZM73.341 31.48C73.5148 31.6104 73.5657 31.6923 73.5725 31.7043L77.0455 29.7197C76.711 29.1343 76.2498 28.6616 75.741 28.28L73.341 31.48ZM73.7726 31.9924C73.7772 31.9979 73.7648 31.9842 73.7491 31.9501C73.7328 31.9148 73.7195 31.872 73.7131 31.8268L77.6729 31.2612C77.5724 30.5576 77.2706 29.9418 76.8454 29.4316L73.7726 31.9924ZM73.7956 32.1765C73.7915 32.1641 73.7988 32.1819 73.8065 32.2403C73.8143 32.2981 73.821 32.3844 73.821 32.504H77.821C77.821 31.9882 77.7658 31.4377 77.5904 30.9115L73.7956 32.1765ZM73.821 32.504C73.821 32.755 73.7565 32.9078 73.5641 33.0864L76.2859 36.0176C77.2882 35.0869 77.821 33.8743 77.821 32.504H73.821ZM73.5684 33.0824C73.3561 33.2784 73.0862 33.4149 72.6676 33.459L73.0864 37.437C74.2891 37.3104 75.3846 36.8496 76.2816 36.0216L73.5684 33.0824ZM72.7719 33.4508C72.5327 33.4634 72.2043 33.4008 71.7369 33.0373L69.2811 36.1947C70.3497 37.0258 71.6 37.518 72.9821 37.4452L72.7719 33.4508ZM71.8173 33.1033C70.1009 31.6188 68.2836 30.4555 66.3633 29.6393L64.7987 33.3207C66.2917 33.9552 67.7598 34.8825 69.2007 36.1287L71.8173 33.1033ZM66.3802 29.6466C64.3668 28.769 61.8425 28.392 58.925 28.392V32.392C61.5542 32.392 63.4672 32.7403 64.7818 33.3134L66.3802 29.6466ZM58.925 28.392C56.1273 28.392 53.4724 28.9631 50.9829 30.1121L52.6591 33.7439C54.607 32.8449 56.6881 32.392 58.925 32.392V28.392ZM50.9829 30.1121C48.5321 31.2432 46.3631 32.8003 44.4847 34.7727L47.3813 37.5313C48.9162 35.9197 50.6725 34.6608 52.6591 33.7439L50.9829 30.1121ZM44.4674 34.7911C42.6249 36.7754 41.193 39.0823 40.1675 41.6927L43.8905 43.1553C44.7423 40.987 45.9131 39.1126 47.3986 37.5129L44.4674 34.7911ZM40.172 41.6812C39.133 44.2788 38.621 47.0499 38.621 49.976H42.621C42.621 47.5261 43.0477 45.2625 43.886 43.1668L40.172 41.6812ZM38.621 49.976C38.621 52.9408 39.1316 55.7505 40.1675 58.3873L43.8905 56.9247C43.0491 54.7829 42.621 52.4725 42.621 49.976H38.621ZM40.172 58.3988C41.1989 60.966 42.6304 63.2466 44.4674 65.2249L47.3986 62.5031C45.9076 60.8974 44.7364 59.0393 43.886 56.9132L40.172 58.3988ZM44.4847 65.2433C46.3631 67.2157 48.5321 68.7728 50.9829 69.9039L52.6591 66.2721C50.6725 65.3552 48.9162 64.0963 47.3813 62.4847L44.4847 65.2433ZM51.012 69.9171C53.4951 71.0154 56.1398 71.56 58.925 71.56V67.56C56.6756 67.56 54.5842 67.1233 52.63 66.2589L51.012 69.9171ZM58.925 71.56C61.3278 71.56 63.6166 71.1586 65.7758 70.3429L64.3622 66.6011C62.6814 67.236 60.8742 67.56 58.925 67.56V71.56ZM65.7978 70.3345C67.9329 69.499 69.9635 68.3661 71.8887 66.9451L69.5133 63.7269C67.8545 64.9512 66.1304 65.909 64.3402 66.6095L65.7978 70.3345ZM71.872 66.9574C72.3582 66.6062 72.6131 66.6072 72.7073 66.6183L73.1747 62.6457C71.8182 62.4861 70.5798 62.9565 69.53 63.7146L71.872 66.9574ZM72.8301 66.6289C73.0902 66.6434 73.2393 66.7198 73.3914 66.8846L76.3306 64.1714C75.4587 63.2269 74.3278 62.706 73.0519 62.6351L72.8301 66.6289ZM73.4468 66.9422C73.4818 66.9772 73.629 67.1318 73.629 67.704H77.629C77.629 66.3989 77.2642 65.1028 76.2752 64.1138L73.4468 66.9422ZM73.629 67.704C73.629 67.8572 73.5996 68.0324 73.516 68.2412L77.23 69.7268C77.4878 69.0822 77.629 68.4041 77.629 67.704H73.629ZM73.5454 68.1717C73.4881 68.3007 73.384 68.4645 73.1908 68.6578L76.0192 71.4862C76.5086 70.9968 76.9166 70.4353 77.2006 69.7963L73.5454 68.1717ZM73.3591 68.5074C71.2198 70.211 68.9386 71.4861 66.5122 72.3471L67.8498 76.1169C70.714 75.1005 73.3822 73.6024 75.8509 71.6366L73.3591 68.5074ZM66.5025 72.3506C64.1279 73.207 61.6064 73.64 58.925 73.64V77.64C62.0463 77.64 65.0288 77.1343 67.8595 76.1134L66.5025 72.3506Z" fill="white" mask="url(#path-2-outside-1_47_2)"/>
</svg>
